<svg xmlns="http://www.w3.org/2000/svg" width="1000" height="1000" viewBox="0 0 1000 1000"><circle cx="500" cy="500" r="500" fill="#2B6CF6"/><g transform="translate(318 643.3)"><path fill="#FFFFFF" d="M270.8 -158.7V-89.2H136.54L135.6 -92.7Q100.78 -92.7 74.39 -104.3Q48 -115.9 33.2 -137.58Q18.4 -159.27 18.4 -188Q18.4 -217.7 33.2 -239.7Q48 -261.7 74.39 -274.15Q100.78 -286.6 135.6 -286.6H354V0H239.4V-258.9L270.1 -213.7H165.6Q150.71 -213.7 142.36 -206.6Q134 -199.5 134 -186.5Q134 -173.5 142.36 -166.1Q150.71 -158.7 165.6 -158.7H270.8ZM226.5 -134.1 137.9 0H10L104 -134.1H226.5Z"/></g></svg>
